# xmcd
#
# Track frame offsets:
#	187
#	11900
#	27267
#	43647
#	61682
#	75862
#	93042
#	103300
#	121897
#	143805
#
# Disc length: 2075 seconds
#
# Revision: 3
# Processed by: cddbd v1.4PL0 Copyright (c) Steve Scherf et al.
# Submitted via: EasyCDDAExtractor 4.6.9.1
#
DISCID=7208190a
DTITLE=Steve Earle - Guitar Town
DYEAR=1986
DGENRE=Rock
TTITLE0=Guitar Town
TTITLE1=Goodbye's All We've Got Left
TTITLE2=Hillbilly Highway
TTITLE3=Good Ol' Boy (Gettin' Tough)
TTITLE4=My Old Friend The Blues
TTITLE5=Someday
TTITLE6=Think It Over
TTITLE7=Fearless Heart
TTITLE8=Little Rock 'N' Roller
TTITLE9=Down The Road
EXTD=
EXTT0=
EXTT1=
EXTT2=
EXTT3=
EXTT4=
EXTT5=
EXTT6=
EXTT7=
EXTT8=
EXTT9=
PLAYORDER=
